<svg xmlns="http://www.w3.org/2000/svg" viewBox="0 0 24 24" role="img" aria-labelledby="github-title">
  <title id="github-title">GitHub</title>
  <path fill="currentColor" d="M12 .5C5.65.5.5 5.65.5 12c0 5.1 3.29 9.41 7.86 10.94.58.1.79-.25.79-.56v-2.02c-3.2.7-3.87-1.36-3.87-1.36-.52-1.33-1.28-1.69-1.28-1.69-1.05-.72.08-.7.08-.7 1.16.08 1.77 1.19 1.77 1.19 1.03 1.76 2.7 1.25 3.36.96.1-.75.4-1.25.73-1.54-2.56-.29-5.25-1.28-5.25-5.7 0-1.26.45-2.29 1.19-3.1-.12-.29-.52-1.47.11-3.06 0 0 .97-.31 3.17 1.18A10.93 10.93 0 0 1 12 6.25c.98 0 1.96.13 2.88.39 2.2-1.49 3.17-1.18 3.17-1.18.63 1.59.23 2.77.11 3.06.74.81 1.19 1.84 1.19 3.1 0 4.43-2.7 5.41-5.27 5.7.42.36.78 1.07.78 2.16v3.2c0 .31.21.67.8.56A11.51 11.51 0 0 0 23.5 12C23.5 5.65 18.35.5 12 .5Z"/>
</svg>
